# xmcd
#
# Track frame offsets: 
#        150
#        13782
#        26909
#        40988
#        57926
#
# Disc length: 957 seconds
#
# Revision: 0
# Processed by: cddbd v1.5.2PL0 Copyright (c) Steve Scherf et al.
# Submitted via: ExactAudioCopy v1.2
#
DISCID=3d03bb05
DTITLE=Tj Sullivan - Old School Blues [EP]
DYEAR=2019
DGENRE=Blues
TTITLE0=Hot Little Mama
TTITLE1=If You Live (Live)
TTITLE2=Jimmy Bell (Live)
TTITLE3=Same Old Blues
TTITLE4=Trouble in Heaven
EXTD=
EXTT0=
EXTT1=
EXTT2=
EXTT3=
EXTT4=
PLAYORDER=
